{"title":"The Wolfman UNRATED DVDRip XviD-DiAMOND","uid":5572862,"size":1469868233,"categoryP":"video","categoryS":"movies","magnet":"?xt=urn:btih:b33455a80028c2df30ca83284747e25050867995&amp;dn=The+Wolfman+UNRATED+DVDRip+XviD-DiAMOND&amp;tr=udp%3A%2F%2Ftracker.openbittorrent.com%3A80&amp;tr=udp%3A%2F%2Fopen.demonii.com%3A1337&amp;tr=udp%3A%2F%2Ftracker.coppersurfer.tk%3A6969&amp;tr=udp%3A%2F%2Fexodus.desync.com%3A6969","seeders":0,"leechers":1,"uploader":"IwannaFan2","files":5,"time":1274300182,"description":"Filename:\nThe Wolfman UNRATED DVDRip XviD-DiAMOND\n &lt;a href=&quot;\nhttp://www.imdb.com/title/tt0780653/&quot; rel=&quot;nofollow&quot; target=&quot;_NEW&quot;&gt;\nhttp://www.imdb.com/title/tt0780653/&lt;/a&gt;\n\nFormat                           : MPEG-4 Visual\nFormat profile                   : AdvancedSimple@L5\nFormat settings, BVOP            : No\nFormat settings, QPel            : No\nFormat settings, GMC             : No warppoints\nFormat settings, Matrix          : Default (MPEG)\nCodec ID                         : XVID\nCodec ID/Hint                    : XviD\nDuration                         : 1h 3mn\nBit rate                         : 1 079 Kbps\nWidth                            : 624 pixels\nHeight                           : 336 pixels\nDisplay aspect ratio             : 1.857\nFrame rate                       : 23.976 fps\nResolution                       : 24 bits\nColorimetry                      : 4:2:0\nScan type                        : Progressive\nBits/(Pixel*Frame)               : 0.215\nStream size                      : 491 MiB (70%)\nWriting library                  : XviD 1.2.1 (UTC 2008-12-04)\n\nAudio\nID                               : 1\nFormat                           : AC-3\nFormat/Info                      : Audio Coding 3\nCodec ID                         : 2000\nDuration                         : 1h 3mn\nBit rate mode                    : Constant\nBit rate                         : 448 Kbps\nChannel(s)                       : 6 channels\nChannel positions                : Front: L C R, Surround: L R, LFE\nSampling rate                    : 48.0 KHz\nStream size                      : 204 MiB (29%)\nAlignment                        : Split accross interleaves\nInterleave, duration             : 42 ms (1.00 video frame)\nInterleave, preload duration     : 500 ms\n\n","torrent":{"xt":"urn:btih:b33455a80028c2df30ca83284747e25050867995","amp;dn":"The+Wolfman+UNRATED+DVDRip+XviD-DiAMOND","amp;tr":["udp%3A%2F%2Ftracker.openbittorrent.com%3A80","udp%3A%2F%2Fopen.demonii.com%3A1337","udp%3A%2F%2Ftracker.coppersurfer.tk%3A6969","udp%3A%2F%2Fexodus.desync.com%3A6969"],"infoHash":"b33455a80028c2df30ca83284747e25050867995","infoHashBuffer":{"type":"Buffer","data":[179,52,85,168,0,40,194,223,48,202,131,40,71,71,226,80,80,134,121,149]},"announce":[],"urlList":[]}}